<?xml version="1.0" encoding="utf-8"?>
<!-- Generator: Adobe Illustrator 24.2.3, SVG Export Plug-In . SVG Version: 6.00 Build 0)  -->
<svg version="1.1"
	 id="Layer_1" inkscape:version="1.2.2 (732a01da63, 2022-12-09)" sodipodi:docname="robots1.svg" xmlns:inkscape="http://www.inkscape.org/namespaces/inkscape" xmlns:sodipodi="http://sodipodi.sourceforge.net/DTD/sodipodi-0.dtd" xmlns:svg="http://www.w3.org/2000/svg"
	 xmlns="http://www.w3.org/2000/svg" xmlns:xlink="http://www.w3.org/1999/xlink" x="0px" y="0px" viewBox="0 0 124.7 355"
	 style="enable-background:new 0 0 124.7 355;" xml:space="preserve">
<sodipodi:namedview  bordercolor="#666666" borderopacity="1.0" id="namedview131" inkscape:current-layer="Layer_1" inkscape:cx="-101.85835" inkscape:cy="204.14649" inkscape:deskcolor="#d1d1d1" inkscape:pagecheckerboard="0" inkscape:pageopacity="0.0" inkscape:showpageshadow="2" inkscape:window-height="1033" inkscape:window-maximized="0" inkscape:window-width="1751" inkscape:window-x="151" inkscape:window-y="38" inkscape:zoom="1.1633803" pagecolor="#ffffff" showgrid="false">
	</sodipodi:namedview>
<g id="g21664" transform="matrix(0.42487045,0,0,0.42487045,9.8420995,77.645236)">
	<path id="path21188" style="fill:#526C66;" d="M117.6,147.2l26.8,0.1c2.6,0,4.7-0.8,4.6-1.9s-2.3-1.9-5-1.9h-26.8
		c-2.7,0-4.7,0.8-4.6,1.8C112.7,146.4,114.9,147.2,117.6,147.2L117.6,147.2z M117.6,143.4h26.8c2.6,0,4.7-0.8,4.6-1.9
		s-2.3-1.9-5-1.9l-26.8,0.1c-2.7,0-4.7,0.8-4.6,1.8S115,143.4,117.6,143.4L117.6,143.4z M117.6,139.7l26.8-0.1
		c2.6,0,4.7-0.9,4.6-1.9s-2.4-1.9-5-1.9l-26.7,0.1c-2.6,0-4.7,0.8-4.6,1.9C112.8,138.9,115,139.7,117.6,139.7L117.6,139.7z
		 M117.6,136l26.8-0.1c2.6,0,4.7-0.9,4.6-1.9c-0.1-1-2.4-1.9-5-1.8l-26.8,0.2c-2.6,0-4.7,0.9-4.5,1.9C112.7,135.2,115,136,117.6,136
		z M117.6,132.2l26.8-0.2c2.6,0,4.7-0.9,4.5-1.9c-0.1-1-2.4-1.8-5-1.8l-26.8,0.3c-2.7,0-4.7,0.9-4.5,1.9S115,132.2,117.6,132.2
		L117.6,132.2z M117.6,128.5l26.8-0.2c2.6,0,4.7-0.9,4.5-1.9c-0.1-1-2.4-1.8-5-1.8l-26.8,0.3c-2.7,0-4.7,0.9-4.5,1.9
		C112.7,127.7,114.9,128.5,117.6,128.5L117.6,128.5z M117.6,124.7l26.8-0.3c2.6,0,4.7-0.9,4.5-1.9c-0.1-1-2.4-1.8-5-1.8L117,121
		c-2.7,0-4.7,0.9-4.5,1.9c0.1,1,2.4,1.8,5,1.8L117.6,124.7z M117.5,120.9l26.8-0.3c2.6,0,4.7-0.9,4.5-1.9c-0.1-1-2.4-1.8-5-1.8
		l-26.8,0.3c-2.6,0-4.7,0.9-4.5,1.9C112.7,120.2,114.9,121,117.5,120.9L117.5,120.9z M117.5,117.1l26.8-0.3c2.6,0,4.7-0.9,4.5-1.9
		c-0.1-1-2.4-1.8-5-1.8l-26.8,0.3c-2.7,0-4.7,0.9-4.5,1.9S114.8,117.2,117.5,117.1z"/>
	<g id="g21134">
		<path id="path21109" style="fill:#536C67;fill-opacity:0.99;" d="M88.7,198.8c0.1,6.6,0.3,13.2,0.4,19.8c0,1.9-0.8,3.5-1.9,3.4
			c-1.1-0.1-2-1.7-2-3.7c0-6.6,0-13.2-0.1-19.8c0-2,0.8-3.5,1.7-3.4C87.8,195.2,88.6,196.8,88.7,198.8L88.7,198.8z M85,198.8
			c0,0,0.1,19.8,0.1,19.8c0,2-0.8,3.5-2,3.4s-2-1.7-1.9-3.7c0.1-6.6,0.2-13.2,0.2-19.8c0-2,0.8-3.4,1.8-3.4S85,196.9,85,198.8
			L85,198.8z M81.4,198.8l-0.2,19.8c0,2-0.9,3.5-2,3.4s-1.9-1.8-1.9-3.7c0.2-6.6,0.4-13.2,0.6-19.8c0.1-2,0.9-3.4,1.8-3.3
			S81.5,196.8,81.4,198.8L81.4,198.8z M77.8,198.7l-0.6,19.8c-0.1,2-1,3.4-2.1,3.3s-1.9-1.8-1.8-3.8l1.1-19.8c0.1-2,0.9-3.4,1.9-3.3
			C77.2,195.1,77.9,196.8,77.8,198.7z M74.3,198.6c0,0-1.1,19.8-1.1,19.8c-0.1,2-1.1,3.4-2.2,3.3s-1.9-1.9-1.7-3.8l1.6-19.7
			c0.2-2,1-3.4,1.9-3.3C73.7,194.9,74.4,196.7,74.3,198.6L74.3,198.6z M70.8,198.4c-0.5,6.6-1.1,13.1-1.6,19.7
			c-0.2,1.9-1.2,3.4-2.3,3.2c-1.1-0.2-1.9-1.9-1.6-3.9c0.7-6.5,1.5-13.1,2.2-19.6c0.2-1.9,1.1-3.4,2-3.2S70.9,196.4,70.8,198.4
			L70.8,198.4z M67.3,198c-0.7,6.5-1.5,13.1-2.2,19.6c-0.2,1.9-1.3,3.3-2.4,3.1s-1.8-2-1.5-3.9c0.9-6.5,1.9-13,2.8-19.5
			c0.3-1.9,1.2-3.3,2.1-3.1C67,194.4,67.5,196.1,67.3,198z M63.9,197.6c-0.9,6.5-1.9,13-2.8,19.5c-0.3,1.9-1.4,3.3-2.5,3
			c-1.1-0.3-1.8-2.1-1.4-4c1.2-6.5,2.4-12.9,3.5-19.4c0.3-1.9,1.3-3.3,2.2-3S64.1,195.7,63.9,197.6z M60.5,197.1l-3.5,19.4
			c-0.4,1.9-1.5,3.2-2.7,2.9c-1.1-0.3-1.7-2.1-1.3-4c1.4-6.4,2.9-12.8,4.3-19.3c0.4-1.9,1.4-3.2,2.3-2.9
			C60.4,193.5,60.8,195.2,60.5,197.1L60.5,197.1z M57.1,196.4c-1.4,6.4-2.9,12.8-4.3,19.3c-0.4,1.9-1.7,3.2-2.8,2.8
			c-1.1-0.4-1.6-2.2-1.1-4.1c1.7-6.4,3.4-12.7,5.1-19.1c0.5-1.9,1.6-3.1,2.4-2.9C57.2,192.8,57.6,194.6,57.1,196.4L57.1,196.4z
			 M53.9,195.6c-1.7,6.4-3.4,12.7-5.1,19.1c-0.1,0.5-0.4,1.1-0.7,1.5c-0.6,0.9-1.5,1.5-2.3,1.2c-1.2-0.4-1.6-2.3-1-4.1
			c2-6.3,4.1-12.6,6.1-18.9c0.6-1.9,1.7-3.1,2.5-2.8c0.5,0.2,0.8,1,0.8,2C54.1,194.3,54,195,53.9,195.6L53.9,195.6z M50.7,194.6
			c-2,6.3-4,12.6-6.1,18.9c-0.6,1.9-2,3-3.2,2.5s-1.5-2.4-0.8-4.2c2.4-6.1,4.8-12.3,7.2-18.5c0.7-1.8,1.9-3,2.6-2.6
			C51.2,191,51.3,192.8,50.7,194.6L50.7,194.6z M47.7,193.6c-2.4,6.2-4.8,12.3-7.2,18.5c-0.7,1.8-2.2,2.9-3.4,2.3
			c-1.1-0.6-1.4-2.5-0.5-4.3c2.8-6,5.6-12,8.4-17.9c0.8-1.8,2-2.9,2.7-2.5C48.5,190,48.4,191.7,47.7,193.6L47.7,193.6z M44.8,192.3
			c-2.8,6-5.6,12-8.4,17.9c-0.8,1.8-2.4,2.7-3.5,2c-1.1-0.7-1.2-2.6-0.3-4.3c3.2-5.7,6.4-11.5,9.7-17.2c1-1.7,2.2-2.7,2.9-2.3
			S45.7,190.6,44.8,192.3L44.8,192.3z M42.1,191c-3.2,5.7-6.5,11.5-9.7,17.2c-1,1.7-2.6,2.5-3.7,1.7c-1.1-0.8-1-2.7,0-4.4l11-16.3
			c1.1-1.6,2.4-2.6,3-2.1S43,189.3,42.1,191L42.1,191z M39.6,189.5c-3.7,5.5-7.4,10.9-11.1,16.4c-1.1,1.6-2.8,2.2-3.9,1.4
			c-1-0.9-0.9-2.8,0.4-4.3c4.2-5.1,8.3-10.1,12.5-15.2c1.2-1.5,2.6-2.3,3.1-1.8C41.1,186.3,40.6,187.9,39.6,189.5L39.6,189.5z
			 M37.2,187.8c-4.2,5.1-8.3,10.2-12.5,15.3c-1.2,1.5-3.1,2-4,1c-0.5-0.6-0.7-1.4-0.5-2.2c0.2-0.8,0.6-1.6,1.3-2.1
			c4.7-4.7,9.3-9.3,14-14c0.5-0.5,1.1-1,1.7-1.3c0.7-0.4,1.3-0.5,1.5-0.2C39.1,184.7,38.4,186.3,37.2,187.8L37.2,187.8z M35.2,185.9
			c-4.7,4.7-9.3,9.3-14,13.9c-1.4,1.4-3.3,1.6-4.1,0.5c-0.9-1.1-0.3-3,1.2-4.2c5.1-4.1,10.2-8.2,15.3-12.4c1.5-1.2,3-1.8,3.4-1.2
			S36.5,184.6,35.2,185.9L35.2,185.9z M33.3,183.9c-5.1,4.1-10.2,8.2-15.4,12.3c-1.5,1.2-3.4,1.3-4.2,0.1s0-3,1.7-4
			c5.5-3.6,11-7.2,16.5-10.8c1.6-1.1,3.2-1.4,3.5-0.9C35.8,181.2,34.9,182.6,33.3,183.9L33.3,183.9z M31.7,181.6
			c-5.5,3.6-11,7.2-16.5,10.8c-1.6,1.1-3.5,1-4.1-0.3c-0.6-1.3,0.3-2.9,2.1-3.9c5.8-3.1,11.6-6.2,17.5-9.3c1.7-0.9,3.3-1.1,3.6-0.5
			S33.3,180.6,31.7,181.6L31.7,181.6z M30.2,179.1c-5.8,3.1-11.6,6.2-17.5,9.2c-1.7,0.9-3.6,0.6-4.1-0.6c-0.5-1.3,0.6-2.9,2.4-3.6
			c6.1-2.6,12.1-5.1,18.2-7.7c1.8-0.8,3.4-0.8,3.6-0.1C33.1,176.9,31.9,178.2,30.2,179.1z M29,176.4c-6.1,2.6-12.1,5.1-18.2,7.7
			c-1.8,0.8-3.6,0.4-4-0.9s0.9-2.8,2.7-3.4c6.3-2.1,12.5-4.1,18.8-6.2c1.9-0.6,3.5-0.5,3.7,0.2S30.8,175.7,29,176.4L29,176.4z
			 M27.9,173.6c-6.3,2.1-12.5,4.1-18.8,6.2c-1.9,0.6-3.6,0.1-3.9-1.2c-0.1-0.3-0.1-0.6,0-0.8l0,0c0.6-1.2,1.7-2.1,3-2.3l19.2-4.8
			c1.1-0.4,2.2-0.3,3.3,0.1l0,0c0.2,0.1,0.3,0.2,0.4,0.4C31.2,172,29.8,173,27.9,173.6L27.9,173.6z M27,170.8
			c-6.4,1.6-12.8,3.2-19.2,4.8c-1.9,0.5-3.6-0.2-3.8-1.4c-0.2-1.2,1.3-2.5,3.2-2.9l19.4-3.6c1.9-0.4,3.5,0,3.6,0.8
			S28.9,170.3,27,170.8z M26.3,167.7l-19.4,3.6c-1.9,0.4-3.6-0.4-3.7-1.6s1.4-2.4,3.3-2.6l19.6-2.5c1.9-0.3,3.5,0.2,3.6,1.1
			C29.7,166.4,28.2,167.3,26.3,167.7L26.3,167.7z M25.8,164.5L6.2,167c-1.9,0.3-3.6-0.5-3.6-1.7s1.5-2.3,3.5-2.4l19.7-1.6
			c1.9-0.2,3.5,0.4,3.5,1.3S27.8,164.2,25.8,164.5L25.8,164.5z M25.5,161.2c-6.6,0.5-13.1,1.1-19.7,1.6c-2,0.2-3.5-0.7-3.5-1.9
			c0-1.2,1.6-2.2,3.6-2.3l19.8-0.9c2-0.1,3.5,0.6,3.5,1.5C29,160.2,27.4,161,25.5,161.2z M25.3,157.8c-6.6,0.3-13.2,0.6-19.8,0.8
			c-2,0.1-3.5-0.8-3.5-1.9s1.7-2.1,3.7-2.1l19.8-0.2c2,0,3.5,0.7,3.4,1.6C28.8,156.9,27.2,157.7,25.3,157.8L25.3,157.8z M25.2,154.3
			l-19.8,0.2c-2,0-3.5-0.9-3.4-2c0.1-1.1,1.8-2,3.7-2l19.8,0.3c2,0,3.5,0.8,3.4,1.7C28.8,153.5,27.1,154.3,25.2,154.3L25.2,154.3z"
			/>
		<path id="rect21111" style="fill:#0E3D2A;" d="M10.7,105.7l-0.3,25.6c0,2-1.6,3.6-3.6,3.6c0,0-0.1,0-0.1,0l0,0
			c-2,0-3.6-1.7-3.6-3.7l0.3-25.6c0-2,1.6-3.6,3.6-3.6c0,0,0.1,0,0.1,0l0,0C9.1,102,10.7,103.6,10.7,105.7z"/>
		<path id="rect21113" style="fill:#0E3D2A;" d="M27.9,98.5l-0.3,25.6c0,2-1.7,3.6-3.6,3.6c0,0,0,0,0,0l0,0c-2-0.1-3.6-1.7-3.6-3.7
			l0.3-25.6c0-2,1.7-3.6,3.6-3.6c0,0,0,0,0.1,0l0,0C26.4,94.8,27.9,96.5,27.9,98.5z"/>
		<path id="rect21115" style="fill:#0E3D2A;" d="M19.4,101.2l-0.3,25.6c0,2-1.6,3.6-3.6,3.6c0,0,0,0-0.1,0l0,0
			c-2-0.1-3.6-1.7-3.6-3.7l0.3-25.6c0-2,1.7-3.6,3.6-3.6c0,0,0,0,0.1,0l0,0C17.8,97.5,19.4,99.1,19.4,101.2z"/>
		<path id="rect21117" style="fill:#0E3D2A;" d="M43.2,127.5l-22.5,9.4c-2.1,0.9-4.5-0.1-5.4-2.2c0-0.1-0.1-0.2-0.1-0.2l0,0
			c-0.8-2.3,0.3-4.8,2.5-5.8l22.5-9.4c2.1-0.9,4.6,0.1,5.5,2.2c0,0.1,0.1,0.1,0.1,0.2l0,0C46.6,124.1,45.5,126.6,43.2,127.5z"/>
		<path id="path21119" style="fill:#497500;" d="M30.6,137.6v-17.2c0.1-2.7-1.9-5-4.7-5.2H4.7c-2.7,0.2-4.8,2.5-4.7,5.2v17.2
			L30.6,137.6z"/>
		<path id="path21121" style="fill:#497500;" d="M30.6,128.6v17.2c0.2,2.7-1.9,5.1-4.6,5.2c0,0,0,0,0,0H4.7
			c-2.7-0.2-4.8-2.5-4.7-5.2c0,0,0,0,0,0v-17.1L30.6,128.6z"/>
	</g>
	<path id="rect111" style="fill:#64A000;" d="M89.8,135.6h84.1c10.2,0,18.4,8.2,18.4,18.4v168.8c0,10.2-8.2,18.4-18.4,18.4H89.8
		c-10.2,0-18.4-8.2-18.4-18.4V154C71.4,143.8,79.6,135.6,89.8,135.6z"/>
	<path id="rect901" style="fill:#64A000;" d="M103.6,49.6h53.9c6.5,0,11.8,5.3,11.8,11.8v46.1c0,6.5-5.3,11.8-11.8,11.8h-53.9
		c-6.5,0-11.8-5.3-11.8-11.8V61.4C91.8,54.9,97,49.6,103.6,49.6z"/>
	<path id="rect1635" style="fill:#64A000;" d="M91.5,348.4h19.7c2.4,0,4.3,1.9,4.3,4.3v123.5c0,2.4-1.9,4.3-4.3,4.3H91.5
		c-2.4,0-4.3-1.9-4.3-4.3V352.7C87.2,350.3,89.1,348.4,91.5,348.4z"/>
	<path id="path1697" style="fill:#1300A0;" d="M117.2,70.3c0,4.4-3.6,8-8,8c-4.4,0-8-3.6-8-8s3.6-8,8-8
		C113.7,62.2,117.2,65.8,117.2,70.3"/>
	<path id="path1699" style="fill:#1300A0;" d="M161,70.3c0,8.8-7.2,15.9-16,15.9c-8.8,0-15.9-7.2-15.9-16c0-8.8,7.2-15.9,16-15.9
		c8.7,0,15.8,7.1,15.9,15.9"/>
	<path id="rect1805" style="fill:#916F6F;" d="M139.5,0h5.4c1.1,0,1.9,0.9,1.9,1.9v46.5c0,1.1-0.9,1.9-1.9,1.9h-5.4
		c-1.1,0-1.9-0.9-1.9-1.9V1.9C137.5,0.9,138.4,0,139.5,0z"/>
	<path id="rect1807" style="fill:#916F6F;" d="M111.6,28.2h7.6c0.5,0,0.8,0.4,0.8,0.8v20.1c0,0.5-0.4,0.8-0.8,0.8h-7.6
		c-0.5,0-0.8-0.4-0.8-0.8V29C110.7,28.6,111.1,28.2,111.6,28.2z"/>
	<path id="rect1809" style="fill:#1E148B;" d="M110.2,94.7h50.5c0.5,0,0.8,0.4,0.8,0.8v9.9c0,0.5-0.4,0.8-0.8,0.8h-50.5
		c-0.5,0-0.8-0.4-0.8-0.8v-9.9C109.3,95.1,109.7,94.7,110.2,94.7z"/>
	<path id="path2208" style="fill:#FFFFFF;" d="M158.3,67c0,3.6-2.9,6.4-6.5,6.4c-3.6,0-6.4-2.9-6.4-6.5c0-3.6,2.9-6.4,6.5-6.4
		C155.4,60.5,158.3,63.4,158.3,67"/>
	<path id="path2210" style="fill:#FFFFFF;" d="M115.9,67.9c-0.1,2-1.7,3.5-3.7,3.4c-2-0.1-3.5-1.7-3.4-3.7c0.1-1.9,1.6-3.4,3.5-3.4
		C114.3,64.2,115.9,65.9,115.9,67.9C115.9,67.9,115.9,67.9,115.9,67.9"/>
	<path id="path3046" style="fill:#CB00CB;" d="M111.5,206.6L87,168.6l45.3-2.3L111.5,206.6z"/>
	<path id="path3048" style="fill:#3737C8;" d="M143.6,244.3l-13.3-20.6l24.5-1.2L143.6,244.3z"/>
	<path id="path21071" style="fill:#497500;" d="M116.2,353.5V477c0,2.4-1.9,4.3-4.3,4.3c0,0,0,0,0,0l-47.6-0.5
		c-7.1-0.1-10.2-12.4-3.7-18c6.5-5.6,26.1-11.7,26.1-11.7l1.1-97.6c0-2.4,1.9-4.3,4.3-4.3h19.7C114.3,349.2,116.2,351.1,116.2,353.5
		C116.2,353.4,116.2,353.5,116.2,353.5L116.2,353.5z"/>
	<path id="path21073" style="fill:#497500;" d="M102.1,477.2c0,3.7-3,6.7-6.7,6.7c-3.7,0-6.7-3-6.7-6.7s3-6.7,6.7-6.7
		C99.1,470.5,102.1,473.5,102.1,477.2"/>
	<path id="path21075" style="fill:#497500;" d="M114.2,477.3c0,3.7-3,6.7-6.8,6.7s-6.7-3-6.7-6.8s3-6.7,6.8-6.7
		C111.2,470.6,114.2,473.6,114.2,477.3"/>
	<path id="path21077" style="fill:#497500;" d="M90.1,477.5c0,3.7-3,6.7-6.8,6.7s-6.7-3-6.7-6.8c0-3.7,3-6.7,6.7-6.7
		C87,470.7,90.1,473.7,90.1,477.5C90.1,477.4,90.1,477.4,90.1,477.5"/>
	<path id="path21079" style="fill:#497500;" d="M78.4,477.5c0,3.7-3,6.7-6.8,6.7c-3.7,0-6.7-3-6.7-6.8c0-3.7,3-6.7,6.7-6.7
		C75.4,470.7,78.4,473.7,78.4,477.5C78.4,477.4,78.4,477.4,78.4,477.5"/>
	<path id="path21081" style="fill:#0E3D2A;" d="M114.9,423.3l-26.8-0.1c-2.7,0-4.7-1.3-4.6-3c0.1-1.6,2.3-2.9,5-2.9l26.8,0.1
		c2.7,0,4.7,1.3,4.6,3C119.8,422,117.6,423.3,114.9,423.3z"/>
	<path id="path21083" style="fill:#0E3D2A;" d="M114.9,418.5l-26.8-0.1c-2.7,0-4.7-1.3-4.6-3c0.1-1.6,2.3-2.9,5-2.9l26.8,0.1
		c2.7,0,4.7,1.3,4.6,3C119.8,417.3,117.6,418.5,114.9,418.5z"/>
	<path id="path21085" style="fill:#0E3D2A;" d="M114.9,413.5l-26.8-0.1c-2.7,0-4.7-1.3-4.6-3c0.1-1.6,2.3-2.9,5-2.9l26.8,0.1
		c2.7,0,4.7,1.3,4.6,3C119.8,412.3,117.6,413.5,114.9,413.5z"/>
	<g id="g21160">
		<path id="path21136" style="fill:#497500;" d="M146.8,319.5V443c0,2.4,1.9,4.3,4.3,4.3c0,0,0,0,0.1,0l47.6-0.5
			c7.1-0.1,10.2-12.4,3.7-18c-6.5-5.6-26.1-11.7-26.1-11.7l-1.1-97.6c0-2.4-1.9-4.3-4.3-4.3h-19.7
			C148.8,315.2,146.9,317.1,146.8,319.5L146.8,319.5z"/>
		<path id="path21138" style="fill:#497500;" d="M160.9,443.2c0,3.7,3,6.7,6.7,6.7c3.7,0,6.7-3,6.7-6.7s-3-6.7-6.7-6.7
			C163.9,436.5,160.9,439.5,160.9,443.2"/>
		<path id="path21140" style="fill:#497500;" d="M148.8,443.3c0,3.7,3,6.7,6.8,6.7c3.7,0,6.7-3,6.7-6.8c0-3.7-3-6.7-6.8-6.7
			C151.8,436.6,148.8,439.6,148.8,443.3"/>
		<path id="path21142" style="fill:#497500;" d="M172.9,443.5c0,3.7,3,6.7,6.8,6.7s6.7-3,6.7-6.8c0-3.7-3-6.7-6.7-6.7
			C176,436.7,173,439.7,172.9,443.5C172.9,443.4,172.9,443.4,172.9,443.5"/>
		<path id="path21144" style="fill:#497500;" d="M184.6,443.5c0,3.7,3,6.7,6.8,6.7c3.7,0,6.7-3,6.7-6.8c0-3.7-3-6.7-6.7-6.7
			C187.7,436.7,184.6,439.7,184.6,443.5C184.6,443.4,184.6,443.4,184.6,443.5"/>
		<path id="path21146" style="fill:#0E3D2A;" d="M148.1,389.3l26.8-0.1c2.7,0,4.7-1.3,4.6-3c-0.1-1.6-2.4-2.9-5-2.9l-26.8,0.1
			c-2.7,0-4.7,1.3-4.6,3S145.5,389.3,148.1,389.3z"/>
		<path id="path21148" style="fill:#0E3D2A;" d="M148.1,384.5l26.8-0.1c2.7,0,4.7-1.3,4.6-3c-0.1-1.6-2.4-2.9-5-2.9l-26.8,0.1
			c-2.7,0-4.7,1.3-4.6,3S145.5,384.5,148.1,384.5z"/>
		<path id="path21150" style="fill:#0E3D2A;" d="M148.1,379.5l26.8-0.1c2.7,0,4.7-1.3,4.6-3c-0.1-1.6-2.4-2.9-5-2.9l-26.8,0.1
			c-2.7,0-4.7,1.3-4.6,3S145.5,379.5,148.1,379.5z"/>
	</g>
	<g id="g21176">
		<path id="path21162" style="fill:#536C67;fill-opacity:0.99;" d="M165.9,186.5l0.1,19.8c0,1.9-0.8,3.5-1.7,3.4
			c-1-0.1-1.8-1.7-1.8-3.7c-0.1-6.6-0.3-13.2-0.4-19.8c0-2,0.8-3.5,1.9-3.4C165,182.9,165.9,184.5,165.9,186.5L165.9,186.5z
			 M169.9,186.5c-0.1,6.6-0.2,13.2-0.2,19.8c0,2-0.8,3.5-1.8,3.4c-1-0.1-1.8-1.7-1.8-3.7l-0.1-19.8c0-1.9,0.9-3.5,1.9-3.4
			S169.8,184.5,169.9,186.5L169.9,186.5z M173.9,186.6l-0.6,19.8c-0.1,2-0.9,3.4-1.8,3.3c-0.9-0.1-1.7-1.8-1.7-3.7
			c0.1-6.6,0.1-13.2,0.2-19.8c0-2,0.9-3.4,2-3.4C173,182.9,173.9,184.6,173.9,186.6L173.9,186.6z M177.9,186.7
			c-0.4,6.6-0.7,13.2-1.1,19.8c-0.1,1.9-0.9,3.4-1.9,3.3c-0.9-0.1-1.7-1.8-1.6-3.7l0.6-19.8c0.1-2,1-3.4,2.1-3.3
			C177.2,183.1,178,184.8,177.9,186.7z M181.9,187c-0.5,6.6-1.1,13.1-1.6,19.7c-0.2,1.9-1,3.4-1.9,3.3s-1.6-1.8-1.5-3.8
			c0,0,1.1-19.8,1.1-19.8c0.1-2,1.1-3.4,2.2-3.2S182,185,181.9,187L181.9,187z M185.9,187.4c-0.7,6.5-1.5,13.1-2.2,19.6
			c-0.2,1.9-1.1,3.4-2,3.2s-1.5-1.9-1.4-3.8l1.6-19.7c0.2-1.9,1.2-3.4,2.3-3.2C185.4,183.7,186.1,185.4,185.9,187.4L185.9,187.4z
			 M189.9,187.9c-0.9,6.5-1.9,13-2.8,19.5c-0.3,1.9-1.2,3.3-2.1,3.1s-1.4-1.9-1.2-3.9c0.7-6.5,1.5-13.1,2.2-19.6
			c0.2-1.9,1.3-3.3,2.4-3.1C189.5,184.2,190.2,186,189.9,187.9z M194,188.6c-1.2,6.5-2.4,12.9-3.5,19.4c-0.4,1.9-1.3,3.3-2.2,3
			s-1.4-1.9-1.1-3.9l2.9-19.5c0.3-1.9,1.4-3.3,2.6-3S194.3,186.6,194,188.6L194,188.6z M198.1,189.4c-1.4,6.4-2.9,12.8-4.3,19.3
			c-0.4,1.9-1.4,3.2-2.3,3s-1.3-2-0.9-3.9c1.2-6.5,2.3-12.9,3.5-19.4c0.4-1.9,1.5-3.2,2.7-2.9S198.5,187.5,198.1,189.4L198.1,189.4z
			 M202.1,190.4c-1.7,6.3-3.4,12.7-5.1,19.1c-0.5,1.9-1.6,3.1-2.4,2.9s-1.2-2-0.7-4c1.4-6.4,2.9-12.8,4.3-19.2
			c0.4-1.9,1.7-3.2,2.8-2.8C202.1,186.6,202.7,188.4,202.1,190.4L202.1,190.4z M206.3,191.5c-2,6.3-4.1,12.6-6.1,18.9
			c-0.6,1.9-1.7,3.1-2.5,2.8c-0.5-0.2-0.8-1-0.8-2c0-0.7,0.1-1.3,0.3-2c1.7-6.4,3.4-12.7,5.1-19.1c0.1-0.5,0.4-1.1,0.7-1.5
			c0.4-0.9,1.4-1.3,2.3-1.2C206.4,187.8,206.9,189.6,206.3,191.5L206.3,191.5z M210.4,193c-2.4,6.2-4.8,12.3-7.2,18.5
			c-0.7,1.8-1.9,3-2.6,2.6c-0.7-0.4-0.9-2.1-0.3-4c2-6.3,4-12.6,6.1-18.9c0.6-1.9,2-3,3.2-2.5S211.1,191.1,210.4,193z M214.5,194.7
			c-2.8,6-5.6,12-8.4,17.9c-0.8,1.8-2,2.9-2.7,2.5c-0.7-0.4-0.7-2.1,0-4l7.2-18.5c0.7-1.8,2.2-2.9,3.4-2.3S215.3,192.9,214.5,194.7
			L214.5,194.7z M218.5,196.8c-3.2,5.7-6.4,11.5-9.7,17.2c-0.9,1.7-2.2,2.7-2.9,2.3c-0.6-0.4-0.5-2.2,0.3-3.9c2.8-6,5.6-12,8.4-17.9
			c0.8-1.8,2.4-2.7,3.5-2C219.3,193.2,219.4,195.1,218.5,196.8L218.5,196.8z M222.3,199.2c-3.7,5.4-7.4,10.9-11,16.3
			c-1.1,1.6-2.4,2.5-3,2.1c-0.6-0.5-0.3-2.2,0.6-3.9c3.2-5.7,6.4-11.5,9.7-17.2c1-1.7,2.6-2.5,3.7-1.7
			C223.4,195.6,223.4,197.6,222.3,199.2L222.3,199.2z M226.1,202c-4.2,5.1-8.3,10.2-12.5,15.2c-1.2,1.5-2.6,2.3-3.1,1.8
			s-0.1-2.2,1-3.8c3.7-5.4,7.3-10.9,11-16.3c1.1-1.6,2.8-2.2,3.9-1.4S227.2,200.5,226.1,202L226.1,202z M229.6,205.1
			c-4.7,4.7-9.3,9.3-14,14c-0.5,0.5-1.1,1-1.7,1.3c-0.7,0.4-1.3,0.5-1.5,0.2c-0.4-0.5,0.2-2.1,1.4-3.7c4.2-5.1,8.3-10.1,12.5-15.2
			c1.2-1.5,3-2,4-1c0.5,0.6,0.7,1.4,0.5,2.2C230.6,203.8,230.2,204.6,229.6,205.1L229.6,205.1z M232.8,208.7
			c-5.1,4.1-10.2,8.2-15.3,12.4c-1.5,1.2-3,1.8-3.4,1.2c-0.4-0.5,0.4-2,1.8-3.4c4.7-4.7,9.3-9.3,14-13.9c1.4-1.4,3.3-1.6,4.1-0.5
			C234.9,205.6,234.4,207.4,232.8,208.7L232.8,208.7z M235.6,212.5c-5.5,3.6-11,7.2-16.5,10.8c-1.6,1.1-3.2,1.4-3.5,0.8
			s0.6-2,2.1-3.3c5.1-4.1,10.2-8.2,15.4-12.3c1.5-1.2,3.4-1.3,4.1-0.1C238,209.6,237.3,211.5,235.6,212.5z M238,216.5
			c-5.8,3.1-11.7,6.2-17.5,9.3c-1.7,0.9-3.3,1.1-3.6,0.5c-0.3-0.6,0.8-2,2.4-3.1l16.5-10.8c1.6-1.1,3.5-0.9,4.1,0.3
			C240.7,213.9,239.7,215.6,238,216.5L238,216.5z M240,220.7l-18.2,7.7c-1.8,0.8-3.4,0.8-3.6,0.1c-0.2-0.7,1-2,2.7-2.9
			c5.8-3.1,11.6-6.2,17.5-9.2c1.7-0.9,3.6-0.6,4.1,0.6C242.9,218.3,241.8,219.9,240,220.7z M241.6,225c-6.3,2.1-12.5,4.1-18.8,6.2
			c-1.9,0.6-3.5,0.5-3.6-0.2s1.1-1.9,2.9-2.7c6.1-2.6,12.1-5.1,18.2-7.7c1.8-0.8,3.6-0.4,4,0.9S243.5,224.3,241.6,225L241.6,225z
			 M242.9,229.3l-19.1,4.7c-1.1,0.4-2.2,0.3-3.3-0.1l0,0c-0.2-0.1-0.3-0.2-0.4-0.4c-0.1-0.7,1.2-1.8,3.1-2.4
			c6.3-2.1,12.5-4.1,18.8-6.2c1.9-0.6,3.6-0.1,3.9,1.2c0.1,0.3,0.1,0.6,0,0.8l0,0C245.3,228.2,244.2,229,242.9,229.3L242.9,229.3z
			 M243.8,233.5c-6.5,1.2-12.9,2.4-19.4,3.6c-1.9,0.4-3.5,0-3.6-0.8s1.3-1.8,3.2-2.3c6.4-1.6,12.8-3.2,19.2-4.8
			c1.9-0.5,3.6,0.2,3.8,1.4C247.1,231.9,245.7,233.2,243.8,233.5z M244.5,237.8c-6.5,0.8-13,1.7-19.6,2.6c-1.9,0.3-3.5-0.2-3.6-1.1
			c0-0.8,1.4-1.8,3.4-2.1c6.5-1.2,12.9-2.4,19.4-3.6c1.9-0.4,3.6,0.4,3.7,1.6S246.4,237.5,244.5,237.8L244.5,237.8z M244.9,242
			l-19.7,1.6c-1.9,0.2-3.5-0.4-3.5-1.3s1.5-1.8,3.5-2l19.6-2.5c1.9-0.2,3.6,0.5,3.6,1.7S246.9,241.8,244.9,242z M245.2,246.1
			l-19.7,0.9c-2,0.1-3.5-0.6-3.5-1.5c0-0.9,1.6-1.7,3.6-1.9l19.7-1.6c1.9-0.2,3.5,0.7,3.5,1.9C248.8,245.1,247.2,246.1,245.2,246.1
			L245.2,246.1z M245.4,250.3l-19.8,0.2c-2,0-3.5-0.7-3.4-1.6c0.1-0.9,1.7-1.7,3.6-1.8l19.8-0.8c2-0.1,3.5,0.8,3.5,2
			S247.4,250.2,245.4,250.3L245.4,250.3z M245.4,254.3c-6.6-0.1-13.2-0.2-19.8-0.3c-2,0-3.5-0.8-3.4-1.8c0.1-0.9,1.7-1.7,3.7-1.7
			l19.8-0.2c2,0,3.5,0.9,3.4,2S247.3,254.3,245.4,254.3L245.4,254.3z"/>
		<path id="rect21164" style="fill:#0E3D2A;" d="M240.4,299.1l0.3-25.6c0-2,1.7-3.6,3.6-3.6c0,0,0,0,0.1,0l0,0
			c2,0.1,3.6,1.7,3.6,3.7l-0.3,25.6c0,2-1.7,3.6-3.6,3.6c0,0,0,0,0,0l0,0C242,302.8,240.3,301.1,240.4,299.1L240.4,299.1z"/>
		<path id="rect21166" style="fill:#0E3D2A;" d="M223.1,306.3l0.3-25.6c0-2,1.7-3.6,3.6-3.6c0,0,0,0,0,0l0,0c2,0.1,3.6,1.7,3.6,3.7
			l-0.3,25.6c0,2-1.6,3.6-3.6,3.6c0,0-0.1,0-0.1,0l0,0C224.7,309.9,223.1,308.3,223.1,306.3L223.1,306.3z"/>
		<path id="rect21168" style="fill:#0E3D2A;" d="M231.7,303.6L232,278c0-2,1.7-3.6,3.6-3.6c0,0,0,0,0,0l0,0c2,0.1,3.6,1.7,3.6,3.7
			l-0.3,25.6c0,2-1.6,3.6-3.6,3.6c0,0-0.1,0-0.1,0l0,0C233.3,307.3,231.7,305.6,231.7,303.6z"/>
		<path id="rect21170" style="fill:#0E3D2A;" d="M207.9,277.2l22.5-9.4c2.1-0.9,4.6,0.1,5.5,2.2c0,0.1,0.1,0.1,0.1,0.2l0,0
			c0.8,2.3-0.3,4.8-2.5,5.8l-22.5,9.4c-2.1,0.9-4.5-0.1-5.4-2.2c0-0.1-0.1-0.2-0.1-0.2l0,0C204.5,280.7,205.6,278.2,207.9,277.2z"/>
		<path id="path21172" style="fill:#497500;" d="M220.5,267.2v17.2c-0.1,2.7,1.9,5,4.6,5.2h21.3c2.7-0.2,4.8-2.5,4.6-5.2v-17.1
			L220.5,267.2z"/>
		<path id="path21174" style="fill:#497500;" d="M220.5,276.2V259c-0.1-2.7,1.9-5,4.6-5.2h21.3c2.7,0.2,4.8,2.5,4.6,5.2v17.1
			L220.5,276.2z"/>
	</g>
	<path id="path21182" style="fill:#0B2822;fill-opacity:0.99;" d="M120.3,350l-35.1-0.2c-3.5,0-6.2-2.2-6-4.8
		c0.2-2.7,3.1-4.8,6.6-4.8l35.1,0.2c3.5,0,6.2,2.2,6,4.8C126.7,347.9,123.7,350,120.3,350z"/>
	<path id="path21184" style="fill:#0B2822;fill-opacity:0.99;" d="M178.3,321l-35.1-0.2c-3.5,0-6.1-2.2-6-4.8
		c0.1-2.7,3.1-4.8,6.6-4.8l35.1,0.2c3.5,0,6.1,2.2,6,4.8C184.7,318.9,181.7,321,178.3,321z"/>
	<path id="path21186" style="fill:#0B2822;fill-opacity:0.99;" d="M171.4,177.8l-0.2,35.1c0,3.5-2.2,6.2-4.8,6s-4.8-3.1-4.8-6.6
		l0.2-35.1c0-3.5,2.2-6.2,4.8-6S171.4,174.3,171.4,177.8z"/>
	<path id="path21194" style="fill:#1E148B;" d="M120.6,135.1l20.6,0.1c2,0,3.6-0.9,3.5-1.9c-0.1-1.1-1.8-1.9-3.8-1.9l-20.6,0.1
		c-2,0-3.6,0.8-3.5,1.8C116.9,134.3,118.6,135.1,120.6,135.1z M120.6,131.4l20.6-0.1c2,0,3.6-0.9,3.5-1.9c-0.1-1.1-1.8-1.9-3.9-1.8
		l-20.6,0.2c-2,0-3.6,0.9-3.5,1.9S118.6,131.4,120.6,131.4L120.6,131.4z M120.6,127.7l20.6-0.2c2,0,3.6-0.9,3.5-1.9
		s-1.8-1.8-3.9-1.8l-20.6,0.3c-2,0-3.6,0.9-3.5,1.9C116.9,126.9,118.6,127.7,120.6,127.7L120.6,127.7z M120.6,123.9l20.6-0.3
		c2,0,3.6-0.9,3.5-1.9c-0.1-1-1.8-1.8-3.9-1.8l-20.6,0.3c-2,0-3.6,0.9-3.5,1.9S118.5,123.9,120.6,123.9z"/>
</g>
</svg>
