<svg xmlns="http://www.w3.org/2000/svg" viewBox="0 0 251.07 484.21"><defs><style>.cls-1{fill:#526c66;}.cls-2{fill:#536c67;}.cls-12,.cls-2{fill-opacity:0.99;}.cls-3{fill:#0e3d2a;fill-opacity:1;}.cls-4{fill:#497500;}.cls-5{fill:#64a000;}.cls-6{fill:#1300a0;}.cls-7{fill:#916f6f;}.cls-8{fill:#1e148b;}.cls-9{fill:#fff;}.cls-10{fill:#cb00cb;}.cls-11{fill:#3737c8;}.cls-12{fill:#0b2822;}</style></defs><g id="Layer_2" data-name="Layer 2"><g id="svg5"><g id="g21664"><path id="path21188" class="cls-1" d="M117.59,147.16l26.77.13c2.64,0,4.69-.83,4.59-1.87s-2.33-1.89-5-1.9l-26.77,0c-2.65,0-4.69.81-4.58,1.82s2.32,1.83,5,1.84Zm0-3.72H144.4c2.65,0,4.69-.83,4.57-1.88s-2.34-1.87-5-1.87l-26.76.07c-2.65,0-4.69.83-4.57,1.84s2.34,1.83,5,1.83Zm0-3.74,26.76-.07c2.65,0,4.68-.85,4.56-1.89s-2.35-1.87-5-1.85L117.2,136c-2.64,0-4.67.84-4.55,1.86s2.35,1.82,5,1.81Zm0-3.74,26.76-.14c2.65,0,4.68-.87,4.55-1.9s-2.36-1.86-5-1.84l-26.77.2c-2.64,0-4.67.86-4.54,1.87s2.36,1.82,5,1.81Zm0-3.75,26.77-.2c2.65,0,4.67-.87,4.54-1.91s-2.37-1.84-5-1.82l-26.76.25c-2.65,0-4.68.86-4.54,1.88s2.37,1.82,5,1.8Zm0-3.76,26.77-.24c2.65,0,4.67-.88,4.54-1.91s-2.38-1.84-5-1.81l-26.76.27c-2.65,0-4.67.88-4.54,1.9S114.91,128.48,117.55,128.45Zm0-3.76,26.76-.28c2.65,0,4.67-.88,4.53-1.9s-2.38-1.84-5-1.81L117,121c-2.65,0-4.67.88-4.53,1.9s2.38,1.83,5,1.8Zm-.07-3.77,26.76-.29c2.65,0,4.67-.88,4.53-1.91s-2.38-1.83-5-1.8l-26.77.29c-2.64,0-4.67.88-4.53,1.91s2.38,1.83,5,1.8Zm-.07-3.78,26.77-.29c2.64,0,4.66-.88,4.53-1.9s-2.38-1.82-5-1.8l-26.76.28c-2.65,0-4.67.88-4.54,1.91s2.38,1.83,5,1.8Z"/><g id="g21134"><path id="path21109" class="cls-2" d="M88.67,198.77q.21,9.87.4,19.75c0,1.95-.79,3.48-1.88,3.42s-2-1.7-2-3.66q0-9.89-.11-19.79c0-2,.75-3.46,1.73-3.38s1.8,1.7,1.84,3.66Zm-3.64,0s.11,19.8.11,19.79c0,2-.85,3.47-2,3.39s-2-1.74-1.93-3.7q.12-9.9.22-19.8c0-2,.82-3.45,1.78-3.36S85,196.86,85,198.81Zm-3.61,0-.24,19.8c0,2-.93,3.46-2,3.35s-1.94-1.79-1.88-3.74q.33-9.9.63-19.79c.07-2,.88-3.44,1.83-3.34s1.71,1.76,1.69,3.72Zm-3.59-.06-.64,19.78c-.06,2-1,3.44-2.12,3.3s-1.92-1.83-1.81-3.78c0,0,1.1-19.75,1.1-19.75.1-2,.94-3.42,1.88-3.3s1.65,1.79,1.59,3.75Zm-3.56-.14s-1.1,19.76-1.1,19.75c-.11,2-1.09,3.41-2.21,3.25s-1.89-1.88-1.73-3.83l1.62-19.7c.15-2,1-3.39,1.94-3.25S74.38,196.66,74.27,198.61Zm-3.51-.22q-.81,9.86-1.63,19.7c-.16,1.95-1.19,3.37-2.31,3.17s-1.85-1.93-1.64-3.87q1.11-9.81,2.2-19.62c.21-1.94,1.11-3.36,2-3.19s1.52,1.86,1.36,3.81Zm-3.48-.31q-1.09,9.81-2.21,19.62c-.21,1.94-1.3,3.33-2.42,3.1s-1.81-2-1.52-3.93q1.41-9.75,2.83-19.52c.28-1.93,1.21-3.31,2.1-3.12s1.44,1.91,1.22,3.85Zm-3.43-.42q-1.41,9.76-2.84,19.52c-.29,1.93-1.42,3.28-2.55,3s-1.75-2.05-1.4-4q1.77-9.71,3.53-19.4c.34-1.92,1.31-3.27,2.18-3s1.36,1.95,1.08,3.88Zm-3.38-.54-3.54,19.4c-.36,1.92-1.55,3.23-2.68,2.91s-1.69-2.11-1.26-4q2.15-9.61,4.28-19.25c.42-1.9,1.43-3.21,2.28-2.95s1.27,2,.92,3.91Zm-3.33-.66q-2.14,9.63-4.3,19.25c-.42,1.9-1.68,3.17-2.8,2.81s-1.63-2.19-1.12-4.07q2.55-9.54,5.09-19.09c.51-1.88,1.56-3.15,2.39-2.85S57.57,194.55,57.14,196.46Zm-3.27-.8q-2.55,9.54-5.11,19.07a5.43,5.43,0,0,1-.67,1.54c-.63.95-1.53,1.45-2.32,1.16-1.15-.41-1.59-2.28-1-4.15q3.06-9.42,6.1-18.86c.6-1.87,1.69-3.09,2.47-2.76.49.21.76,1,.77,2a7.13,7.13,0,0,1-.26,2Zm-3.14-1q-3,9.44-6.12,18.86c-.61,1.87-2,3-3.17,2.51s-1.49-2.41-.78-4.24q3.62-9.22,7.21-18.48c.71-1.82,1.86-3,2.6-2.65S51.34,192.84,50.73,194.7Zm-3-1.07q-3.6,9.24-7.23,18.47c-.71,1.83-2.21,2.87-3.35,2.28s-1.36-2.53-.53-4.3q4.21-9,8.39-17.92c.83-1.78,2-2.89,2.73-2.51s.7,2.15,0,4Zm-2.9-1.21q-4.2,9-8.42,17.91c-.83,1.78-2.41,2.69-3.52,2s-1.22-2.63-.26-4.33q4.84-8.59,9.66-17.19c1-1.71,2.21-2.74,2.85-2.32s.52,2.15-.31,3.92Zm-2.74-1.35q-4.83,8.6-9.69,17.17c-1,1.7-2.62,2.48-3.7,1.71s-1-2.74,0-4.35l11-16.29c1.09-1.62,2.39-2.55,3-2.1s.3,2.15-.65,3.86Zm-2.54-1.53Q34,197.69,28.47,205.81c-1.09,1.61-2.83,2.24-3.87,1.37s-.85-2.84.38-4.34q6.25-7.6,12.47-15.22c1.23-1.51,2.58-2.32,3.09-1.84s.07,2.15-1,3.76Zm-2.31-1.71Q31,195.44,24.72,203c-1.24,1.5-3.06,2-4,1a2.26,2.26,0,0,1-.49-2.19,4.41,4.41,0,0,1,1.25-2.13q7-7,14-13.95a8.67,8.67,0,0,1,1.68-1.32c.72-.42,1.29-.54,1.54-.23C39.05,184.71,38.44,186.32,37.21,187.83Zm-2.06-1.9q-7,7-14,13.92c-1.39,1.37-3.27,1.61-4.14.5s-.29-3,1.23-4.24q7.68-6.17,15.34-12.36c1.51-1.23,3-1.76,3.37-1.23S36.54,184.56,35.15,185.93Zm-1.85-2q-7.66,6.18-15.36,12.34c-1.52,1.21-3.4,1.27-4.15.1s0-3,1.66-4q8.25-5.38,16.49-10.8c1.63-1.07,3.17-1.44,3.49-.85s-.61,2-2.13,3.25Zm-1.65-2.27Q23.4,187,15.14,192.41c-1.64,1.06-3.52,1-4.14-.26s.32-2.94,2.05-3.85q8.73-4.61,17.45-9.25c1.73-.92,3.31-1.12,3.58-.48s-.8,2-2.43,3.07Zm-1.45-2.49q-8.73,4.64-17.47,9.22c-1.73.91-3.59.65-4.09-.6s.59-2.87,2.4-3.63q9.11-3.84,18.22-7.72c1.8-.77,3.41-.82,3.63-.14s-1,2-2.69,2.87Zm-1.26-2.65q-9.1,3.85-18.23,7.68c-1.8.76-3.62.35-4-.92s.86-2.79,2.71-3.4q9.4-3.09,18.79-6.21c1.86-.61,3.48-.53,3.66.19S30.75,175.73,28.94,176.5Zm-1.06-2.8q-9.39,3.11-18.79,6.18c-1.86.6-3.63.06-3.9-1.23a1.8,1.8,0,0,1,0-.83h0a4,4,0,0,1,3-2.29l19.15-4.78a4.89,4.89,0,0,1,3.3.08h0a.63.63,0,0,1,.35.44c.13.74-1.24,1.82-3.1,2.43ZM27,170.77q-9.59,2.39-19.16,4.75c-1.89.47-3.59-.16-3.77-1.4s1.26-2.5,3.17-2.86l19.39-3.59c1.92-.36,3.51,0,3.6.81S28.9,170.3,27,170.77Zm-.69-3.1L6.93,171.24c-1.92.36-3.58-.35-3.69-1.57s1.39-2.39,3.33-2.65l19.56-2.54c1.94-.26,3.51.22,3.55,1.05s-1.45,1.78-3.36,2.14Zm-.51-3.21L6.24,167c-1.94.25-3.56-.53-3.61-1.73s1.51-2.28,3.46-2.44l19.7-1.63c1.94-.17,3.5.41,3.5,1.27s-1.54,1.74-3.48,2Zm-.35-3.31q-9.84.82-19.69,1.62c-1.95.16-3.54-.67-3.53-1.85s1.61-2.18,3.57-2.26l19.77-.85c2-.08,3.49.57,3.45,1.46s-1.62,1.72-3.57,1.88Zm-.2-3.39q-9.88.44-19.78.84c-2,.08-3.5-.8-3.45-1.95s1.7-2.08,3.65-2.1l19.8-.19c2,0,3.47.71,3.41,1.62S27.21,157.68,25.26,157.76Zm-.1-3.46-19.79.18c-2,0-3.48-.89-3.38-2s1.76-2,3.71-2l19.77.34c2,0,3.45.81,3.37,1.74S27.12,154.28,25.16,154.3Z"/><path id="rect21111" class="cls-3" d="M10.71,105.66l-.27,25.56a3.59,3.59,0,0,1-3.69,3.57h0a3.7,3.7,0,0,1-3.62-3.73l.28-25.56a3.59,3.59,0,0,1,3.69-3.57h0A3.69,3.69,0,0,1,10.71,105.66Z"/><path id="rect21113" class="cls-3" d="M27.93,98.51l-.27,25.56A3.61,3.61,0,0,1,24,127.64h0a3.72,3.72,0,0,1-3.62-3.74l.27-25.56a3.61,3.61,0,0,1,3.7-3.57h0A3.71,3.71,0,0,1,27.93,98.51Z"/><path id="rect21115" class="cls-3" d="M19.37,101.16l-.27,25.56a3.6,3.6,0,0,1-3.69,3.57h0a3.72,3.72,0,0,1-3.62-3.74L12.06,101a3.61,3.61,0,0,1,3.7-3.57h0A3.71,3.71,0,0,1,19.37,101.16Z"/><path id="rect21117" class="cls-3" d="M43.23,127.54,20.7,136.92a4.15,4.15,0,0,1-5.54-2.41h0a4.55,4.55,0,0,1,2.5-5.75l22.53-9.39a4.16,4.16,0,0,1,5.54,2.41h0A4.57,4.57,0,0,1,43.23,127.54Z"/><path id="path21119" class="cls-4" d="M30.6,137.61V120.4a4.94,4.94,0,0,0-4.66-5.19H4.65A4.94,4.94,0,0,0,0,120.4v17.15Z"/><path id="path21121" class="cls-4" d="M30.6,128.58v17.21A4.93,4.93,0,0,1,25.94,151H4.65A4.93,4.93,0,0,1,0,145.79V128.65Z"/></g><rect id="rect111" class="cls-5" x="71.4" y="135.61" width="120.88" height="205.64" rx="18.4"/><rect id="rect901" class="cls-5" x="91.76" y="49.58" width="77.54" height="69.7" rx="11.8"/><rect id="rect1635" class="cls-5" x="87.16" y="348.39" width="28.28" height="132.09" rx="4.3"/><path id="path1697" class="cls-6" d="M117.24,70.25a8,8,0,1,1,0-.07"/><path id="path1699" class="cls-6" d="M161,70.25a15.92,15.92,0,1,1,0-.13"/><rect id="rect1805" class="cls-7" x="137.52" width="9.24" height="50.35" rx="1.93"/><rect id="rect1807" class="cls-7" x="110.73" y="28.18" width="9.24" height="21.71" rx="0.83"/><rect id="rect1809" class="cls-8" x="109.34" y="94.7" width="52.2" height="11.55" rx="0.83"/><path id="path2208" class="cls-9" d="M158.31,67a6.44,6.44,0,1,1,0-.06"/><path id="path2210" class="cls-9" d="M115.91,67.91a3.57,3.57,0,1,1-3.59-3.7,3.64,3.64,0,0,1,3.59,3.7"/><path id="path3046" class="cls-10" d="M111.54,206.63,87,168.56l45.26-2.27Z"/><path id="path3048" class="cls-11" d="M143.61,244.28l-13.3-20.59,24.48-1.22Z"/><path id="path21071" class="cls-4" d="M116.21,353.46V477a4.28,4.28,0,0,1-4.3,4.3l-47.55-.5c-7.12-.08-10.18-12.38-3.69-18S86.8,451.07,86.8,451.07l1.13-97.61a4.31,4.31,0,0,1,4.3-4.3h19.68A4.29,4.29,0,0,1,116.21,353.46Z"/><path id="path21073" class="cls-4" d="M102.12,477.2a6.72,6.72,0,1,1,0-.06"/><path id="path21075" class="cls-4" d="M114.23,477.33a6.73,6.73,0,1,1,0-.05"/><path id="path21077" class="cls-4" d="M90.1,477.46a6.75,6.75,0,1,1-6.79-6.75,6.74,6.74,0,0,1,6.79,6.75"/><path id="path21079" class="cls-4" d="M78.43,477.46a6.75,6.75,0,1,1-6.79-6.75,6.74,6.74,0,0,1,6.79,6.75"/><path id="path21081" class="cls-3" d="M114.92,423.28l-26.83-.11c-2.65,0-4.69-1.33-4.57-2.95s2.35-2.92,5-2.91l26.83.11c2.66,0,4.7,1.32,4.58,2.95S117.57,423.29,114.92,423.28Z"/><path id="path21083" class="cls-3" d="M114.92,418.53l-26.83-.11c-2.65,0-4.69-1.33-4.57-2.95s2.35-2.92,5-2.91l26.83.11c2.66,0,4.7,1.32,4.58,2.95S117.57,418.54,114.92,418.53Z"/><path id="path21085" class="cls-3" d="M114.92,413.53l-26.83-.11c-2.65,0-4.69-1.33-4.57-2.95s2.35-2.92,5-2.91l26.83.11c2.66,0,4.7,1.32,4.58,2.95S117.57,413.54,114.92,413.53Z"/><g id="g21160"><path id="path21136" class="cls-4" d="M146.83,319.46V443a4.28,4.28,0,0,0,4.31,4.3l47.55-.5c7.11-.08,10.17-12.38,3.68-18s-26.13-11.67-26.13-11.67l-1.12-97.61a4.31,4.31,0,0,0-4.31-4.3H151.14A4.3,4.3,0,0,0,146.83,319.46Z"/><path id="path21138" class="cls-4" d="M160.92,443.2a6.72,6.72,0,1,0,0-.06"/><path id="path21140" class="cls-4" d="M148.81,443.33a6.73,6.73,0,1,0,0-.05"/><path id="path21142" class="cls-4" d="M172.94,443.46a6.75,6.75,0,1,0,6.79-6.75,6.74,6.74,0,0,0-6.79,6.75"/><path id="path21144" class="cls-4" d="M184.61,443.46a6.75,6.75,0,1,0,6.79-6.75,6.74,6.74,0,0,0-6.79,6.75"/><path id="path21146" class="cls-3" d="M148.12,389.28l26.83-.11c2.65,0,4.69-1.33,4.57-2.95s-2.35-2.92-5-2.91l-26.83.11c-2.65,0-4.69,1.32-4.58,2.95S145.47,389.29,148.12,389.28Z"/><path id="path21148" class="cls-3" d="M148.12,384.53l26.83-.11c2.65,0,4.69-1.33,4.57-2.95s-2.35-2.92-5-2.91l-26.83.11c-2.65,0-4.69,1.32-4.58,2.95S145.47,384.54,148.12,384.53Z"/><path id="path21150" class="cls-3" d="M148.12,379.53l26.83-.11c2.65,0,4.69-1.33,4.57-2.95s-2.35-2.92-5-2.91l-26.83.11c-2.65,0-4.69,1.32-4.58,2.95S145.47,379.54,148.12,379.53Z"/></g><g id="g21176"><path id="path21162" class="cls-2" d="M165.86,186.48l.12,19.79c0,1.95-.76,3.46-1.74,3.39s-1.8-1.71-1.84-3.66q-.19-9.88-.4-19.76c0-2,.79-3.48,1.88-3.42s2,1.7,2,3.66Zm4,0q-.12,9.9-.23,19.8c0,2-.81,3.46-1.78,3.37s-1.76-1.73-1.77-3.69c0,0-.11-19.79-.11-19.79,0-1.95.86-3.47,1.95-3.39S169.84,184.51,169.82,186.47Zm4,.08-.63,19.78c-.06,2-.87,3.44-1.82,3.34s-1.71-1.76-1.69-3.72q.1-9.9.23-19.8c0-2,.93-3.45,2-3.35s1.94,1.79,1.88,3.75Zm4,.16q-.56,9.89-1.09,19.76c-.11,1.95-.94,3.42-1.88,3.29s-1.66-1.79-1.59-3.74l.63-19.79c.07-2,1-3.44,2.12-3.3s1.92,1.83,1.81,3.78Zm4,.27q-.81,9.86-1.61,19.7c-.16,1.95-1,3.39-1.95,3.25s-1.59-1.82-1.48-3.78c0,0,1.1-19.76,1.1-19.75.11-2,1.1-3.41,2.22-3.24S182,185,181.84,187Zm4,.39q-1.11,9.81-2.19,19.62c-.22,1.94-1.12,3.36-2,3.19s-1.52-1.86-1.36-3.81l1.62-19.7c.16-1.94,1.2-3.37,2.32-3.17s1.85,1.93,1.63,3.87Zm4.06.52q-1.42,9.75-2.83,19.52c-.28,1.93-1.21,3.31-2.1,3.12s-1.44-1.9-1.23-3.85q1.11-9.81,2.21-19.61c.22-1.94,1.3-3.34,2.43-3.1s1.8,2,1.52,3.92Zm4.07.65q-1.77,9.71-3.53,19.4c-.35,1.92-1.32,3.27-2.19,3s-1.36-1.95-1.08-3.88l2.85-19.51c.28-1.93,1.42-3.29,2.55-3s1.75,2.06,1.4,4Zm4.07.81q-2.16,9.61-4.29,19.25c-.42,1.9-1.43,3.21-2.28,3s-1.26-2-.91-3.92q1.75-9.7,3.54-19.39c.35-1.92,1.54-3.23,2.67-2.92s1.69,2.11,1.27,4Zm4.07,1q-2.57,9.52-5.1,19.08c-.5,1.89-1.56,3.15-2.39,2.86s-1.16-2-.74-4q2.15-9.62,4.3-19.24c.43-1.91,1.68-3.17,2.81-2.82S202.66,188.43,202.16,190.32Zm4.13,1.16q-3.06,9.44-6.1,18.86c-.61,1.87-1.7,3.1-2.48,2.76-.48-.21-.75-1-.76-2a7.42,7.42,0,0,1,.25-2q2.55-9.54,5.11-19.08a5.43,5.43,0,0,1,.67-1.54,2.13,2.13,0,0,1,2.33-1.16c1.15.41,1.58,2.28,1,4.15Zm4.12,1.45q-3.61,9.23-7.21,18.48c-.71,1.83-1.85,3-2.59,2.65s-.87-2.14-.27-4q3-9.44,6.12-18.86c.61-1.87,2-3,3.18-2.51s1.48,2.41.77,4.24Zm4.07,1.75q-4.2,9-8.39,17.92c-.83,1.78-2,2.89-2.72,2.51s-.71-2.15,0-4l7.23-18.47c.72-1.83,2.22-2.86,3.35-2.28s1.37,2.53.53,4.3Zm4,2.07q-4.84,8.59-9.67,17.2c-.95,1.7-2.2,2.73-2.85,2.32s-.51-2.16.32-3.93q4.18-9,8.41-17.91c.84-1.77,2.42-2.69,3.53-2s1.21,2.63.26,4.33Zm3.88,2.41q-5.54,8.15-11,16.3c-1.09,1.61-2.4,2.54-3,2.09s-.31-2.15.65-3.85q4.83-8.59,9.68-17.18c1-1.7,2.63-2.48,3.7-1.71s1,2.74,0,4.35Zm3.73,2.76q-6.24,7.61-12.46,15.23c-1.23,1.5-2.59,2.32-3.09,1.83s-.07-2.15,1-3.76q5.5-8.15,11-16.27c1.1-1.61,2.84-2.24,3.87-1.36s.86,2.83-.38,4.33Zm3.55,3.15q-7,7-14,14a9.13,9.13,0,0,1-1.67,1.33c-.73.41-1.3.53-1.54.23-.43-.53.19-2.14,1.42-3.65q6.23-7.6,12.49-15.2c1.24-1.5,3-2,4-1a2.29,2.29,0,0,1,.49,2.19,4.52,4.52,0,0,1-1.25,2.13Zm3.19,3.58q-7.68,6.16-15.33,12.36c-1.52,1.23-3,1.76-3.38,1.24s.42-2,1.8-3.42q7-7,14-13.92c1.38-1.37,3.26-1.61,4.13-.49S234.35,207.43,232.83,208.65Zm2.8,3.81q-8.26,5.39-16.5,10.8c-1.63,1.07-3.17,1.43-3.49.84s.62-2,2.14-3.25q7.66-6.18,15.35-12.33c1.52-1.22,3.41-1.28,4.15-.11s0,3-1.65,4.05Zm2.4,4q-8.75,4.6-17.46,9.25c-1.72.92-3.31,1.13-3.58.48s.81-2,2.44-3.07l16.51-10.77c1.63-1.06,3.51-.95,4.13.26s-.32,2.94-2,3.85Zm2,4.16-18.22,7.72c-1.8.77-3.41.82-3.63.14s1-2,2.69-2.87q8.73-4.62,17.47-9.22c1.73-.91,3.58-.65,4.09.6s-.6,2.87-2.4,3.63Zm1.62,4.29q-9.41,3.09-18.79,6.2c-1.86.62-3.47.53-3.65-.18s1.11-1.9,2.91-2.66q9.1-3.87,18.23-7.69c1.81-.76,3.63-.35,4,.92S243.52,224.3,241.66,224.91Zm1.23,4.33L223.74,234a4.83,4.83,0,0,1-3.3-.08h0a.68.68,0,0,1-.35-.44c-.13-.73,1.24-1.82,3.1-2.43q9.39-3.1,18.8-6.17c1.86-.61,3.63-.06,3.9,1.22a1.8,1.8,0,0,1,0,.83h0a4,4,0,0,1-3,2.3Zm.93,4.26q-9.69,1.78-19.38,3.6c-1.92.35-3.52,0-3.61-.82s1.34-1.82,3.24-2.29q9.57-2.38,19.15-4.75c1.9-.47,3.6.16,3.77,1.4s-1.25,2.5-3.17,2.86Zm.69,4.24q-9.78,1.26-19.57,2.55c-1.93.25-3.51-.23-3.55-1.06s1.45-1.78,3.37-2.13q9.69-1.8,19.39-3.58c1.92-.35,3.58.36,3.69,1.58S246.44,237.49,244.51,237.74Zm.47,4.2-19.69,1.63c-1.95.17-3.5-.4-3.5-1.26s1.54-1.75,3.47-2l19.57-2.54c1.94-.24,3.56.53,3.61,1.73s-1.51,2.28-3.46,2.44Zm.29,4.16L225.5,247c-2,.08-3.49-.57-3.46-1.46s1.62-1.72,3.57-1.88l19.7-1.62c1.94-.16,3.53.68,3.52,1.85s-1.61,2.18-3.56,2.26Zm.12,4.11-19.79.19c-2,0-3.48-.71-3.41-1.62s1.67-1.7,3.63-1.78l19.77-.84c2-.08,3.51.8,3.45,2S247.35,250.19,245.39,250.21Zm0,4q-9.88-.17-19.76-.33c-2,0-3.46-.82-3.37-1.75s1.72-1.69,3.67-1.71l19.8-.18c2,0,3.47.89,3.38,2s-1.76,2-3.72,2Z"/><path id="rect21164" class="cls-3" d="M240.36,299.1l.27-25.56a3.61,3.61,0,0,1,3.7-3.57h0a3.71,3.71,0,0,1,3.61,3.73l-.27,25.57a3.61,3.61,0,0,1-3.69,3.57h0A3.72,3.72,0,0,1,240.36,299.1Z"/><path id="rect21166" class="cls-3" d="M223.14,306.26l.28-25.57a3.61,3.61,0,0,1,3.69-3.57h0a3.71,3.71,0,0,1,3.61,3.74l-.27,25.56a3.59,3.59,0,0,1-3.69,3.57h0A3.71,3.71,0,0,1,223.14,306.26Z"/><path id="rect21168" class="cls-3" d="M231.7,303.61,232,278a3.61,3.61,0,0,1,3.69-3.57h0a3.71,3.71,0,0,1,3.61,3.74L239,303.77a3.59,3.59,0,0,1-3.69,3.57h0A3.71,3.71,0,0,1,231.7,303.61Z"/><path id="rect21170" class="cls-3" d="M207.85,277.23l22.52-9.39a4.16,4.16,0,0,1,5.54,2.41h0a4.57,4.57,0,0,1-2.5,5.76l-22.52,9.38a4.15,4.15,0,0,1-5.54-2.41h0A4.55,4.55,0,0,1,207.85,277.23Z"/><path id="path21172" class="cls-4" d="M220.48,267.15v17.21a4.93,4.93,0,0,0,4.65,5.19h21.29a4.93,4.93,0,0,0,4.65-5.19V267.22Z"/><path id="path21174" class="cls-4" d="M220.48,276.18V259a4.93,4.93,0,0,1,4.65-5.19h21.29a4.93,4.93,0,0,1,4.65,5.19v17.14Z"/></g><path id="path21182" class="cls-12" d="M120.25,350l-35.11-.18c-3.48,0-6.15-2.17-6-4.83s3.08-4.78,6.55-4.76l35.11.18c3.48,0,6.15,2.17,6,4.83S123.72,350,120.25,350Z"/><path id="path21184" class="cls-12" d="M178.25,321l-35.11-.18c-3.48,0-6.15-2.17-6-4.83s3.08-4.78,6.55-4.76l35.11.18c3.48,0,6.15,2.17,6,4.83S181.72,321,178.25,321Z"/><path id="path21186" class="cls-12" d="M171.36,177.79l-.18,35.11c0,3.48-2.17,6.15-4.83,6s-4.78-3.08-4.76-6.55l.18-35.11c0-3.48,2.17-6.15,4.83-6S171.38,174.32,171.36,177.79Z"/><path id="path21194" class="cls-8" d="M120.62,135.07l20.57.08c2,0,3.61-.85,3.52-1.9s-1.8-1.9-3.83-1.89l-20.57.09c-2,0-3.59.82-3.51,1.82S118.58,135.07,120.62,135.07Zm0-3.69,20.57-.1c2,0,3.59-.86,3.49-1.91s-1.83-1.87-3.86-1.85l-20.56.21c-2,0-3.59.85-3.49,1.86S118.61,131.39,120.64,131.38Zm0-3.72,20.56-.21c2,0,3.58-.88,3.47-1.92s-1.84-1.84-3.87-1.82l-20.56.28c-2,0-3.58.87-3.47,1.88S118.57,127.68,120.61,127.66Zm-.07-3.75,20.56-.27c2,0,3.58-.88,3.46-1.91s-1.84-1.82-3.87-1.8l-20.57.28c-2,0-3.58.88-3.46,1.91s1.84,1.82,3.88,1.79Z"/></g></g></g></svg>